<?xml version="1.0" encoding="UTF-8" standalone="no"?><svg xmlns="http://www.w3.org/2000/svg" xmlns:xlink="http://www.w3.org/1999/xlink" contentScriptType="application/ecmascript" contentStyleType="text/css" height="630px" preserveAspectRatio="none" style="width:1562px;height:630px;" version="1.1" viewBox="0 0 1562 630" width="1562px" zoomAndPan="magnify"><defs><filter height="300%" id="fvj9921cxngxi" width="300%" x="-1" y="-1"><feGaussianBlur result="blurOut" stdDeviation="2.0"/><feColorMatrix in="blurOut" result="blurOut2" type="matrix" values="0 0 0 0 0 0 0 0 0 0 0 0 0 0 0 0 0 0 .4 0"/><feOffset dx="4.0" dy="4.0" in="blurOut2" result="blurOut3"/><feBlend in="SourceGraphic" in2="blurOut3" mode="normal"/></filter></defs><g><line style="stroke: #A80036; stroke-width: 1.0; stroke-dasharray: 5.0,5.0;" x1="297" x2="297" y1="87.6094" y2="541.8281"/><line style="stroke: #A80036; stroke-width: 1.0; stroke-dasharray: 5.0,5.0;" x1="359" x2="359" y1="87.6094" y2="541.8281"/><line style="stroke: #A80036; stroke-width: 1.0; stroke-dasharray: 5.0,5.0;" x1="549" x2="549" y1="87.6094" y2="541.8281"/><line style="stroke: #A80036; stroke-width: 1.0; stroke-dasharray: 5.0,5.0;" x1="643.5" x2="643.5" y1="87.6094" y2="541.8281"/><line style="stroke: #A80036; stroke-width: 1.0; stroke-dasharray: 5.0,5.0;" x1="1035" x2="1035" y1="87.6094" y2="541.8281"/><line style="stroke: #A80036; stroke-width: 1.0; stroke-dasharray: 5.0,5.0;" x1="1143" x2="1143" y1="87.6094" y2="541.8281"/><line style="stroke: #A80036; stroke-width: 1.0; stroke-dasharray: 5.0,5.0;" x1="1406.5" x2="1406.5" y1="87.6094" y2="541.8281"/><text fill="#000000" font-family="sans-serif" font-size="14" lengthAdjust="spacingAndGlyphs" textLength="28" x="280" y="84.5332">user</text><ellipse cx="297" cy="13" fill="#FEFECE" filter="url(#fvj9921cxngxi)" rx="8" ry="8" style="stroke: #A80036; stroke-width: 2.0;"/><path d="M297,21 L297,48 M284,29 L310,29 M297,48 L284,63 M297,48 L310,63 " fill="none" filter="url(#fvj9921cxngxi)" style="stroke: #A80036; stroke-width: 2.0;"/><text fill="#000000" font-family="sans-serif" font-size="14" lengthAdjust="spacingAndGlyphs" textLength="28" x="280" y="555.3613">user</text><ellipse cx="297" cy="568.4375" fill="#FEFECE" filter="url(#fvj9921cxngxi)" rx="8" ry="8" style="stroke: #A80036; stroke-width: 2.0;"/><path d="M297,576.4375 L297,603.4375 M284,584.4375 L310,584.4375 M297,603.4375 L284,618.4375 M297,603.4375 L310,618.4375 " fill="none" filter="url(#fvj9921cxngxi)" style="stroke: #A80036; stroke-width: 2.0;"/><rect fill="#FEFECE" filter="url(#fvj9921cxngxi)" height="31.6094" style="stroke: #A80036; stroke-width: 1.5;" width="67" x="324" y="51"/><text fill="#000000" font-family="sans-serif" font-size="14" lengthAdjust="spacingAndGlyphs" textLength="53" x="331" y="72.5332">orhelper</text><rect fill="#FEFECE" filter="url(#fvj9921cxngxi)" height="31.6094" style="stroke: #A80036; stroke-width: 1.5;" width="67" x="324" y="540.8281"/><text fill="#000000" font-family="sans-serif" font-size="14" lengthAdjust="spacingAndGlyphs" textLength="53" x="331" y="562.3613">orhelper</text><rect fill="#FEFECE" filter="url(#fvj9921cxngxi)" height="31.6094" style="stroke: #A80036; stroke-width: 1.5;" width="85" x="505" y="51"/><text fill="#000000" font-family="sans-serif" font-size="14" lengthAdjust="spacingAndGlyphs" textLength="71" x="512" y="72.5332">openrocket</text><rect fill="#FEFECE" filter="url(#fvj9921cxngxi)" height="31.6094" style="stroke: #A80036; stroke-width: 1.5;" width="85" x="505" y="540.8281"/><text fill="#000000" font-family="sans-serif" font-size="14" lengthAdjust="spacingAndGlyphs" textLength="71" x="512" y="562.3613">openrocket</text><rect fill="#FEFECE" filter="url(#fvj9921cxngxi)" height="31.6094" style="stroke: #A80036; stroke-width: 1.5;" width="45" x="619.5" y="51"/><text fill="#000000" font-family="sans-serif" font-size="14" lengthAdjust="spacingAndGlyphs" textLength="31" x="626.5" y="72.5332">main</text><rect fill="#FEFECE" filter="url(#fvj9921cxngxi)" height="31.6094" style="stroke: #A80036; stroke-width: 1.5;" width="45" x="619.5" y="540.8281"/><text fill="#000000" font-family="sans-serif" font-size="14" lengthAdjust="spacingAndGlyphs" textLength="31" x="626.5" y="562.3613">main</text><rect fill="#FEFECE" filter="url(#fvj9921cxngxi)" height="31.6094" style="stroke: #A80036; stroke-width: 1.5;" width="78" x="994" y="51"/><text fill="#000000" font-family="sans-serif" font-size="14" lengthAdjust="spacingAndGlyphs" textLength="64" x="1001" y="72.5332">simulation</text><rect fill="#FEFECE" filter="url(#fvj9921cxngxi)" height="31.6094" style="stroke: #A80036; stroke-width: 1.5;" width="78" x="994" y="540.8281"/><text fill="#000000" font-family="sans-serif" font-size="14" lengthAdjust="spacingAndGlyphs" textLength="64" x="1001" y="562.3613">simulation</text><rect fill="#FEFECE" filter="url(#fvj9921cxngxi)" height="31.6094" style="stroke: #A80036; stroke-width: 1.5;" width="111" x="1086" y="51"/><text fill="#000000" font-family="sans-serif" font-size="14" lengthAdjust="spacingAndGlyphs" textLength="97" x="1093" y="72.5332">abstractlistener</text><rect fill="#FEFECE" filter="url(#fvj9921cxngxi)" height="31.6094" style="stroke: #A80036; stroke-width: 1.5;" width="111" x="1086" y="540.8281"/><text fill="#000000" font-family="sans-serif" font-size="14" lengthAdjust="spacingAndGlyphs" textLength="97" x="1093" y="562.3613">abstractlistener</text><rect fill="#FEFECE" filter="url(#fvj9921cxngxi)" height="31.6094" style="stroke: #A80036; stroke-width: 1.5;" width="98" x="1355.5" y="51"/><text fill="#000000" font-family="sans-serif" font-size="14" lengthAdjust="spacingAndGlyphs" textLength="84" x="1362.5" y="72.5332">landingpoints</text><rect fill="#FEFECE" filter="url(#fvj9921cxngxi)" height="31.6094" style="stroke: #A80036; stroke-width: 1.5;" width="98" x="1355.5" y="540.8281"/><text fill="#000000" font-family="sans-serif" font-size="14" lengthAdjust="spacingAndGlyphs" textLength="84" x="1362.5" y="562.3613">landingpoints</text><path d="M125,102.6094 L125,128.6094 L590,128.6094 L590,112.6094 L580,102.6094 L125,102.6094 " fill="#FBFB77" filter="url(#fvj9921cxngxi)" style="stroke: #A80036; stroke-width: 1.0;"/><path d="M580,102.6094 L580,112.6094 L590,112.6094 L580,102.6094 " fill="#FBFB77" style="stroke: #A80036; stroke-width: 1.0;"/><text fill="#000000" font-family="sans-serif" font-size="13" lengthAdjust="spacingAndGlyphs" textLength="444" x="131" y="121.1045">Helper class provided on OpenRocket wiki to interface with java source code</text><path d="M351,142.9609 L351,168.9609 L744,168.9609 L744,152.9609 L734,142.9609 L351,142.9609 " fill="#FBFB77" filter="url(#fvj9921cxngxi)" style="stroke: #A80036; stroke-width: 1.0;"/><path d="M734,142.9609 L734,152.9609 L744,152.9609 L734,142.9609 " fill="#FBFB77" style="stroke: #A80036; stroke-width: 1.0;"/><text fill="#000000" font-family="sans-serif" font-size="13" lengthAdjust="spacingAndGlyphs" textLength="372" x="357" y="161.4561">OpenRocket sourcecode provided methods for rocket simulation</text><polygon fill="#A80036" points="537.5,201.6641,547.5,205.6641,537.5,209.6641,541.5,205.6641" style="stroke: #A80036; stroke-width: 1.0;"/><line style="stroke: #A80036; stroke-width: 1.0;" x1="359.5" x2="543.5" y1="205.6641" y2="205.6641"/><text fill="#000000" font-family="sans-serif" font-size="13" lengthAdjust="spacingAndGlyphs" textLength="166" x="366.5" y="200.8076">Provides access to methods</text><path d="M554,183.3125 L554,209.3125 L987,209.3125 L987,193.3125 L977,183.3125 L554,183.3125 " fill="#FBFB77" filter="url(#fvj9921cxngxi)" style="stroke: #A80036; stroke-width: 1.0;"/><path d="M977,183.3125 L977,193.3125 L987,193.3125 L977,183.3125 " fill="#FBFB77" style="stroke: #A80036; stroke-width: 1.0;"/><text fill="#000000" font-family="sans-serif" font-size="13" lengthAdjust="spacingAndGlyphs" textLength="412" x="560" y="201.8076">Instantiates and manages JVM connection and creation of java proxies</text><polygon fill="#A80036" points="1023,237.0156,1033,241.0156,1023,245.0156,1027,241.0156" style="stroke: #A80036; stroke-width: 1.0;"/><line style="stroke: #A80036; stroke-width: 1.0;" x1="644" x2="1029" y1="241.0156" y2="241.0156"/><text fill="#000000" font-family="sans-serif" font-size="13" lengthAdjust="spacingAndGlyphs" textLength="367" x="651" y="236.1592">Provides interface for user to run simulation and receive results</text><path d="M421,254.0156 L421,280.0156 L863,280.0156 L863,264.0156 L853,254.0156 L421,254.0156 " fill="#FBFB77" filter="url(#fvj9921cxngxi)" style="stroke: #A80036; stroke-width: 1.0;"/><path d="M853,254.0156 L853,264.0156 L863,264.0156 L853,254.0156 " fill="#FBFB77" style="stroke: #A80036; stroke-width: 1.0;"/><text fill="#000000" font-family="sans-serif" font-size="13" lengthAdjust="spacingAndGlyphs" textLength="421" x="427" y="272.5107">Provide entry point to program and allow user to interact with simulations</text><polygon fill="#A80036" points="1154.5,312.7188,1144.5,316.7188,1154.5,320.7188,1150.5,316.7188" style="stroke: #A80036; stroke-width: 1.0;"/><line style="stroke: #A80036; stroke-width: 1.0;" x1="1148.5" x2="1405.5" y1="316.7188" y2="316.7188"/><text fill="#000000" font-family="sans-serif" font-size="13" lengthAdjust="spacingAndGlyphs" textLength="239" x="1160.5" y="311.8623">Implements python proxy of java classes</text><path d="M681,294.3672 L681,320.3672 L1134,320.3672 L1134,304.3672 L1124,294.3672 L681,294.3672 " fill="#FBFB77" filter="url(#fvj9921cxngxi)" style="stroke: #A80036; stroke-width: 1.0;"/><path d="M1124,294.3672 L1124,304.3672 L1134,304.3672 L1124,294.3672 " fill="#FBFB77" style="stroke: #A80036; stroke-width: 1.0;"/><text fill="#000000" font-family="sans-serif" font-size="13" lengthAdjust="spacingAndGlyphs" textLength="432" x="687" y="312.8623">Implements proxy methods defined by abstractlistener to mimic java class</text><path d="M1258,334.7188 L1258,360.7188 L1550,360.7188 L1550,344.7188 L1540,334.7188 L1258,334.7188 " fill="#FBFB77" filter="url(#fvj9921cxngxi)" style="stroke: #A80036; stroke-width: 1.0;"/><path d="M1540,334.7188 L1540,344.7188 L1550,344.7188 L1540,334.7188 " fill="#FBFB77" style="stroke: #A80036; stroke-width: 1.0;"/><text fill="#000000" font-family="sans-serif" font-size="13" lengthAdjust="spacingAndGlyphs" textLength="271" x="1264" y="353.2139">List of returned landing points from simulations</text><polygon fill="#A80036" points="1394.5,388.4219,1404.5,392.4219,1394.5,396.4219,1398.5,392.4219" style="stroke: #A80036; stroke-width: 1.0;"/><line style="stroke: #A80036; stroke-width: 1.0;" x1="1035" x2="1400.5" y1="392.4219" y2="392.4219"/><text fill="#000000" font-family="sans-serif" font-size="13" lengthAdjust="spacingAndGlyphs" textLength="154" x="1042" y="387.5654">Records simulation results</text><polygon fill="#A80036" points="370.5,418.7734,360.5,422.7734,370.5,426.7734,366.5,422.7734" style="stroke: #A80036; stroke-width: 1.0;"/><line style="stroke: #A80036; stroke-width: 1.0;" x1="364.5" x2="1034" y1="422.7734" y2="422.7734"/><text fill="#000000" font-family="sans-serif" font-size="13" lengthAdjust="spacingAndGlyphs" textLength="188" x="376.5" y="417.917">Accesses OpenRocket methods</text><path d="M8,435.7734 L8,461.7734 L583,461.7734 L583,445.7734 L573,435.7734 L8,435.7734 " fill="#FBFB77" filter="url(#fvj9921cxngxi)" style="stroke: #A80036; stroke-width: 1.0;"/><path d="M573,435.7734 L573,445.7734 L583,445.7734 L573,435.7734 " fill="#FBFB77" style="stroke: #A80036; stroke-width: 1.0;"/><text fill="#000000" font-family="sans-serif" font-size="13" lengthAdjust="spacingAndGlyphs" textLength="554" x="14" y="454.2686">User of the system who supplies a rocket design to be tested and the desired parameters if any</text><polygon fill="#A80036" points="632,489.4766,642,493.4766,632,497.4766,636,493.4766" style="stroke: #A80036; stroke-width: 1.0;"/><line style="stroke: #A80036; stroke-width: 1.0;" x1="297" x2="638" y1="493.4766" y2="493.4766"/><text fill="#000000" font-family="sans-serif" font-size="13" lengthAdjust="spacingAndGlyphs" textLength="323" x="304" y="488.6201">Interacts with, specifying desired simulation parameters</text><polygon fill="#A80036" points="308,519.8281,298,523.8281,308,527.8281,304,523.8281" style="stroke: #A80036; stroke-width: 1.0;"/><line style="stroke: #A80036; stroke-width: 1.0;" x1="302" x2="643" y1="523.8281" y2="523.8281"/><text fill="#000000" font-family="sans-serif" font-size="13" lengthAdjust="spacingAndGlyphs" textLength="302" x="314" y="518.9717">Returns to screen and csv file results of simulations</text><!--MD5=[28dc4f2e3dd2d004206251682def20cb]
@startuml actorDiagram
actor user
participant orhelper 
participant openrocket

note over orhelper : Helper class provided on OpenRocket wiki to interface with java source code
note over openrocket: OpenRocket sourcecode provided methods for rocket simulation
orhelper -> openrocket : Provides access to methods
note right: Instantiates and manages JVM connection and creation of java proxies

participant main
participant simulation
participant abstractlistener
participant landingpoints

main -> simulation : Provides interface for user to run simulation and receive results
note over main: Provide entry point to program and allow user to interact with simulations
landingpoints -> abstractlistener : Implements python proxy of java classes
note over landingpoints : List of returned landing points from simulations
note left: Implements proxy methods defined by abstractlistener to mimic java class
simulation -> landingpoints : Records simulation results
simulation -> orhelper : Accesses OpenRocket methods

note over user : User of the system who supplies a rocket design to be tested and the desired parameters if any
user -> main : Interacts with, specifying desired simulation parameters
main -> user : Returns to screen and csv file results of simulations
@enduml

PlantUML version 1.2020.09(Sun May 10 22:51:06 NZST 2020)
(GPL source distribution)
Java Runtime: Java(TM) SE Runtime Environment
JVM: Java HotSpot(TM) 64-Bit Server VM
Java Version: 12.0.2+10
Operating System: Windows 10
Default Encoding: Cp1252
Language: en
Country: NZ
--></g></svg>