<?xml version="1.0" encoding="UTF-8" standalone="no"?><svg xmlns="http://www.w3.org/2000/svg" xmlns:xlink="http://www.w3.org/1999/xlink" contentScriptType="application/ecmascript" contentStyleType="text/css" height="514px" preserveAspectRatio="none" style="width:849px;height:514px;" version="1.1" viewBox="0 0 849 514" width="849px" zoomAndPan="magnify"><defs><filter height="300%" id="f15q8zm2y6y77k" width="300%" x="-1" y="-1"><feGaussianBlur result="blurOut" stdDeviation="2.0"/><feColorMatrix in="blurOut" result="blurOut2" type="matrix" values="0 0 0 0 0 0 0 0 0 0 0 0 0 0 0 0 0 0 .4 0"/><feOffset dx="4.0" dy="4.0" in="blurOut2" result="blurOut3"/><feBlend in="SourceGraphic" in2="blurOut3" mode="normal"/></filter></defs><g><!--MD5=[f1f35038d74df193589435478efa842c]
class orhelper--><rect fill="#FEFECE" filter="url(#f15q8zm2y6y77k)" height="61.8359" id="orhelper" style="stroke: #A80036; stroke-width: 1.5;" width="387" x="6" y="302"/><ellipse cx="172.25" cy="318" fill="#ADD1B2" rx="11" ry="11" style="stroke: #A80036; stroke-width: 1.0;"/><path d="M175.0156,313.875 Q175.1719,313.6563 175.3594,313.5469 Q175.5469,313.4375 175.7656,313.4375 Q176.1406,313.4375 176.375,313.7031 Q176.6094,313.9531 176.6094,314.5625 L176.6094,316.0156 Q176.6094,316.625 176.375,316.8906 Q176.1406,317.1563 175.7656,317.1563 Q175.4219,317.1563 175.2188,316.9531 Q175.0156,316.7656 174.9063,316.25 Q174.8594,315.8906 174.6719,315.7031 Q174.3438,315.3281 173.7344,315.1094 Q173.125,314.8906 172.5,314.8906 Q171.7344,314.8906 171.0938,315.2188 Q170.4688,315.5469 169.9688,316.2969 Q169.4844,317.0469 169.4844,318.0781 L169.4844,319.1719 Q169.4844,320.4063 170.375,321.2344 Q171.2656,322.0469 172.8594,322.0469 Q173.7969,322.0469 174.4531,321.7969 Q174.8438,321.6406 175.2656,321.2031 Q175.5313,320.9375 175.6719,320.8594 Q175.8281,320.7813 176.0313,320.7813 Q176.3594,320.7813 176.6094,321.0469 Q176.875,321.2969 176.875,321.6406 Q176.875,321.9844 176.5313,322.3906 Q176.0313,322.9688 175.2344,323.2969 Q174.1563,323.75 172.8594,323.75 Q171.3438,323.75 170.1406,323.125 Q169.1563,322.625 168.4688,321.5625 Q167.7813,320.4844 167.7813,319.2031 L167.7813,318.0469 Q167.7813,316.7188 168.3906,315.5781 Q169.0156,314.4219 170.1094,313.8125 Q171.2031,313.1875 172.4375,313.1875 Q173.1719,313.1875 173.8125,313.3594 Q174.4688,313.5156 175.0156,313.875 Z "/><text fill="#000000" font-family="sans-serif" font-size="12" lengthAdjust="spacingAndGlyphs" textLength="46" x="192.75" y="322.9102">orhelper</text><line style="stroke: #A80036; stroke-width: 1.5;" x1="7" x2="392" y1="334" y2="334"/><text fill="#000000" font-family="sans-serif" font-size="11" lengthAdjust="spacingAndGlyphs" textLength="375" x="12" y="349.4189">Provided on OpenRocket wiki to interface with OpenRocket java source code</text><line style="stroke: #A80036; stroke-width: 1.5;" x1="7" x2="392" y1="355.8359" y2="355.8359"/><!--MD5=[d18975e8eece670b80df12b9eab7cd0f]
class openrocket--><rect fill="#FEFECE" filter="url(#f15q8zm2y6y77k)" height="61.8359" id="openrocket" style="stroke: #A80036; stroke-width: 1.5;" width="354" x="22.5" y="442"/><ellipse cx="164.75" cy="458" fill="#ADD1B2" rx="11" ry="11" style="stroke: #A80036; stroke-width: 1.0;"/><path d="M167.5156,453.875 Q167.6719,453.6563 167.8594,453.5469 Q168.0469,453.4375 168.2656,453.4375 Q168.6406,453.4375 168.875,453.7031 Q169.1094,453.9531 169.1094,454.5625 L169.1094,456.0156 Q169.1094,456.625 168.875,456.8906 Q168.6406,457.1563 168.2656,457.1563 Q167.9219,457.1563 167.7188,456.9531 Q167.5156,456.7656 167.4063,456.25 Q167.3594,455.8906 167.1719,455.7031 Q166.8438,455.3281 166.2344,455.1094 Q165.625,454.8906 165,454.8906 Q164.2344,454.8906 163.5938,455.2188 Q162.9688,455.5469 162.4688,456.2969 Q161.9844,457.0469 161.9844,458.0781 L161.9844,459.1719 Q161.9844,460.4063 162.875,461.2344 Q163.7656,462.0469 165.3594,462.0469 Q166.2969,462.0469 166.9531,461.7969 Q167.3438,461.6406 167.7656,461.2031 Q168.0313,460.9375 168.1719,460.8594 Q168.3281,460.7813 168.5313,460.7813 Q168.8594,460.7813 169.1094,461.0469 Q169.375,461.2969 169.375,461.6406 Q169.375,461.9844 169.0313,462.3906 Q168.5313,462.9688 167.7344,463.2969 Q166.6563,463.75 165.3594,463.75 Q163.8438,463.75 162.6406,463.125 Q161.6563,462.625 160.9688,461.5625 Q160.2813,460.4844 160.2813,459.2031 L160.2813,458.0469 Q160.2813,456.7188 160.8906,455.5781 Q161.5156,454.4219 162.6094,453.8125 Q163.7031,453.1875 164.9375,453.1875 Q165.6719,453.1875 166.3125,453.3594 Q166.9688,453.5156 167.5156,453.875 Z "/><text fill="#000000" font-family="sans-serif" font-size="12" lengthAdjust="spacingAndGlyphs" textLength="61" x="185.25" y="462.9102">openrocket</text><line style="stroke: #A80036; stroke-width: 1.5;" x1="23.5" x2="375.5" y1="474" y2="474"/><text fill="#000000" font-family="sans-serif" font-size="11" lengthAdjust="spacingAndGlyphs" textLength="342" x="28.5" y="489.4189">OpenRocket java source code providing methods for rocket simulation</text><line style="stroke: #A80036; stroke-width: 1.5;" x1="23.5" x2="375.5" y1="495.8359" y2="495.8359"/><!--MD5=[4520fda4e10d4d791ce48fe025810cd4]
class main--><rect fill="#FEFECE" filter="url(#f15q8zm2y6y77k)" height="75.6719" id="main" style="stroke: #A80036; stroke-width: 1.5;" width="324" x="194.5" y="8"/><ellipse cx="338.75" cy="24" fill="#ADD1B2" rx="11" ry="11" style="stroke: #A80036; stroke-width: 1.0;"/><path d="M341.5156,19.875 Q341.6719,19.6563 341.8594,19.5469 Q342.0469,19.4375 342.2656,19.4375 Q342.6406,19.4375 342.875,19.7031 Q343.1094,19.9531 343.1094,20.5625 L343.1094,22.0156 Q343.1094,22.625 342.875,22.8906 Q342.6406,23.1563 342.2656,23.1563 Q341.9219,23.1563 341.7188,22.9531 Q341.5156,22.7656 341.4063,22.25 Q341.3594,21.8906 341.1719,21.7031 Q340.8438,21.3281 340.2344,21.1094 Q339.625,20.8906 339,20.8906 Q338.2344,20.8906 337.5938,21.2188 Q336.9688,21.5469 336.4688,22.2969 Q335.9844,23.0469 335.9844,24.0781 L335.9844,25.1719 Q335.9844,26.4063 336.875,27.2344 Q337.7656,28.0469 339.3594,28.0469 Q340.2969,28.0469 340.9531,27.7969 Q341.3438,27.6406 341.7656,27.2031 Q342.0313,26.9375 342.1719,26.8594 Q342.3281,26.7813 342.5313,26.7813 Q342.8594,26.7813 343.1094,27.0469 Q343.375,27.2969 343.375,27.6406 Q343.375,27.9844 343.0313,28.3906 Q342.5313,28.9688 341.7344,29.2969 Q340.6563,29.75 339.3594,29.75 Q337.8438,29.75 336.6406,29.125 Q335.6563,28.625 334.9688,27.5625 Q334.2813,26.4844 334.2813,25.2031 L334.2813,24.0469 Q334.2813,22.7188 334.8906,21.5781 Q335.5156,20.4219 336.6094,19.8125 Q337.7031,19.1875 338.9375,19.1875 Q339.6719,19.1875 340.3125,19.3594 Q340.9688,19.5156 341.5156,19.875 Z "/><text fill="#000000" font-family="sans-serif" font-size="12" lengthAdjust="spacingAndGlyphs" textLength="27" x="359.25" y="28.9102">main</text><line style="stroke: #A80036; stroke-width: 1.5;" x1="195.5" x2="517.5" y1="40" y2="40"/><text fill="#000000" font-family="sans-serif" font-size="11" lengthAdjust="spacingAndGlyphs" textLength="286" x="200.5" y="55.4189">Provides entry point and access to simulation class to user</text><text fill="#000000" font-family="sans-serif" font-size="11" lengthAdjust="spacingAndGlyphs" textLength="312" x="200.5" y="69.2549">Allows configuration of parameters and selection of rocket model</text><line style="stroke: #A80036; stroke-width: 1.5;" x1="195.5" x2="517.5" y1="75.6719" y2="75.6719"/><!--MD5=[c1e305122f3de76cbbe2fa8c49329c88]
class simulation--><rect fill="#FEFECE" filter="url(#f15q8zm2y6y77k)" height="61.8359" id="simulation" style="stroke: #A80036; stroke-width: 1.5;" width="319" x="197" y="162"/><ellipse cx="324.25" cy="178" fill="#ADD1B2" rx="11" ry="11" style="stroke: #A80036; stroke-width: 1.0;"/><path d="M327.0156,173.875 Q327.1719,173.6563 327.3594,173.5469 Q327.5469,173.4375 327.7656,173.4375 Q328.1406,173.4375 328.375,173.7031 Q328.6094,173.9531 328.6094,174.5625 L328.6094,176.0156 Q328.6094,176.625 328.375,176.8906 Q328.1406,177.1563 327.7656,177.1563 Q327.4219,177.1563 327.2188,176.9531 Q327.0156,176.7656 326.9063,176.25 Q326.8594,175.8906 326.6719,175.7031 Q326.3438,175.3281 325.7344,175.1094 Q325.125,174.8906 324.5,174.8906 Q323.7344,174.8906 323.0938,175.2188 Q322.4688,175.5469 321.9688,176.2969 Q321.4844,177.0469 321.4844,178.0781 L321.4844,179.1719 Q321.4844,180.4063 322.375,181.2344 Q323.2656,182.0469 324.8594,182.0469 Q325.7969,182.0469 326.4531,181.7969 Q326.8438,181.6406 327.2656,181.2031 Q327.5313,180.9375 327.6719,180.8594 Q327.8281,180.7813 328.0313,180.7813 Q328.3594,180.7813 328.6094,181.0469 Q328.875,181.2969 328.875,181.6406 Q328.875,181.9844 328.5313,182.3906 Q328.0313,182.9688 327.2344,183.2969 Q326.1563,183.75 324.8594,183.75 Q323.3438,183.75 322.1406,183.125 Q321.1563,182.625 320.4688,181.5625 Q319.7813,180.4844 319.7813,179.2031 L319.7813,178.0469 Q319.7813,176.7188 320.3906,175.5781 Q321.0156,174.4219 322.1094,173.8125 Q323.2031,173.1875 324.4375,173.1875 Q325.1719,173.1875 325.8125,173.3594 Q326.4688,173.5156 327.0156,173.875 Z "/><text fill="#000000" font-family="sans-serif" font-size="12" lengthAdjust="spacingAndGlyphs" textLength="56" x="344.75" y="182.9102">simulation</text><line style="stroke: #A80036; stroke-width: 1.5;" x1="198" x2="515" y1="194" y2="194"/><text fill="#000000" font-family="sans-serif" font-size="11" lengthAdjust="spacingAndGlyphs" textLength="307" x="203" y="209.4189">Provides interface for user to run simulation and receive results</text><line style="stroke: #A80036; stroke-width: 1.5;" x1="198" x2="515" y1="215.8359" y2="215.8359"/><!--MD5=[ceed80d67892670bf4b70bde80df95d0]
class abstractlistener--><rect fill="#FEFECE" filter="url(#f15q8zm2y6y77k)" height="61.8359" id="abstractlistener" style="stroke: #A80036; stroke-width: 1.5;" width="261" x="467" y="442"/><ellipse cx="551.75" cy="458" fill="#ADD1B2" rx="11" ry="11" style="stroke: #A80036; stroke-width: 1.0;"/><path d="M554.5156,453.875 Q554.6719,453.6563 554.8594,453.5469 Q555.0469,453.4375 555.2656,453.4375 Q555.6406,453.4375 555.875,453.7031 Q556.1094,453.9531 556.1094,454.5625 L556.1094,456.0156 Q556.1094,456.625 555.875,456.8906 Q555.6406,457.1563 555.2656,457.1563 Q554.9219,457.1563 554.7188,456.9531 Q554.5156,456.7656 554.4063,456.25 Q554.3594,455.8906 554.1719,455.7031 Q553.8438,455.3281 553.2344,455.1094 Q552.625,454.8906 552,454.8906 Q551.2344,454.8906 550.5938,455.2188 Q549.9688,455.5469 549.4688,456.2969 Q548.9844,457.0469 548.9844,458.0781 L548.9844,459.1719 Q548.9844,460.4063 549.875,461.2344 Q550.7656,462.0469 552.3594,462.0469 Q553.2969,462.0469 553.9531,461.7969 Q554.3438,461.6406 554.7656,461.2031 Q555.0313,460.9375 555.1719,460.8594 Q555.3281,460.7813 555.5313,460.7813 Q555.8594,460.7813 556.1094,461.0469 Q556.375,461.2969 556.375,461.6406 Q556.375,461.9844 556.0313,462.3906 Q555.5313,462.9688 554.7344,463.2969 Q553.6563,463.75 552.3594,463.75 Q550.8438,463.75 549.6406,463.125 Q548.6563,462.625 547.9688,461.5625 Q547.2813,460.4844 547.2813,459.2031 L547.2813,458.0469 Q547.2813,456.7188 547.8906,455.5781 Q548.5156,454.4219 549.6094,453.8125 Q550.7031,453.1875 551.9375,453.1875 Q552.6719,453.1875 553.3125,453.3594 Q553.9688,453.5156 554.5156,453.875 Z "/><text fill="#000000" font-family="sans-serif" font-size="12" lengthAdjust="spacingAndGlyphs" textLength="83" x="572.25" y="462.9102">abstractlistener</text><line style="stroke: #A80036; stroke-width: 1.5;" x1="468" x2="727" y1="474" y2="474"/><text fill="#000000" font-family="sans-serif" font-size="11" lengthAdjust="spacingAndGlyphs" textLength="249" x="473" y="489.4189">Provides template for python proxy of java listeners</text><line style="stroke: #A80036; stroke-width: 1.5;" x1="468" x2="727" y1="495.8359" y2="495.8359"/><!--MD5=[0e6065358eefea6555bcda5bd9a87825]
class landingpoints--><rect fill="#FEFECE" filter="url(#f15q8zm2y6y77k)" height="61.8359" id="landingpoints" style="stroke: #A80036; stroke-width: 1.5;" width="338" x="428.5" y="302"/><ellipse cx="556.25" cy="318" fill="#ADD1B2" rx="11" ry="11" style="stroke: #A80036; stroke-width: 1.0;"/><path d="M559.0156,313.875 Q559.1719,313.6563 559.3594,313.5469 Q559.5469,313.4375 559.7656,313.4375 Q560.1406,313.4375 560.375,313.7031 Q560.6094,313.9531 560.6094,314.5625 L560.6094,316.0156 Q560.6094,316.625 560.375,316.8906 Q560.1406,317.1563 559.7656,317.1563 Q559.4219,317.1563 559.2188,316.9531 Q559.0156,316.7656 558.9063,316.25 Q558.8594,315.8906 558.6719,315.7031 Q558.3438,315.3281 557.7344,315.1094 Q557.125,314.8906 556.5,314.8906 Q555.7344,314.8906 555.0938,315.2188 Q554.4688,315.5469 553.9688,316.2969 Q553.4844,317.0469 553.4844,318.0781 L553.4844,319.1719 Q553.4844,320.4063 554.375,321.2344 Q555.2656,322.0469 556.8594,322.0469 Q557.7969,322.0469 558.4531,321.7969 Q558.8438,321.6406 559.2656,321.2031 Q559.5313,320.9375 559.6719,320.8594 Q559.8281,320.7813 560.0313,320.7813 Q560.3594,320.7813 560.6094,321.0469 Q560.875,321.2969 560.875,321.6406 Q560.875,321.9844 560.5313,322.3906 Q560.0313,322.9688 559.2344,323.2969 Q558.1563,323.75 556.8594,323.75 Q555.3438,323.75 554.1406,323.125 Q553.1563,322.625 552.4688,321.5625 Q551.7813,320.4844 551.7813,319.2031 L551.7813,318.0469 Q551.7813,316.7188 552.3906,315.5781 Q553.0156,314.4219 554.1094,313.8125 Q555.2031,313.1875 556.4375,313.1875 Q557.1719,313.1875 557.8125,313.3594 Q558.4688,313.5156 559.0156,313.875 Z "/><text fill="#000000" font-family="sans-serif" font-size="12" lengthAdjust="spacingAndGlyphs" textLength="74" x="576.75" y="322.9102">landingpoints</text><line style="stroke: #A80036; stroke-width: 1.5;" x1="429.5" x2="765.5" y1="334" y2="334"/><text fill="#000000" font-family="sans-serif" font-size="11" lengthAdjust="spacingAndGlyphs" textLength="326" x="434.5" y="349.4189">Implements proxy interface and records landing point of simulations</text><line style="stroke: #A80036; stroke-width: 1.5;" x1="429.5" x2="765.5" y1="355.8359" y2="355.8359"/><!--MD5=[aa4222a0459ac58427cee01620cb82c5]
link orhelper to openrocket--><path d="M199.5,364.285 C199.5,385.586 199.5,414.1654 199.5,436.5331 " fill="none" id="orhelper-&gt;openrocket" style="stroke: #A80036; stroke-width: 1.0;"/><polygon fill="#A80036" points="199.5,441.786,203.5,432.786,199.5,436.786,195.5,432.786,199.5,441.786" style="stroke: #A80036; stroke-width: 1.0;"/><text fill="#000000" font-family="sans-serif" font-size="13" lengthAdjust="spacingAndGlyphs" textLength="166" x="200.5" y="408.4951">Provides access to methods</text><!--MD5=[bb77fe7ae08721a109a10cd39a868302]
link main to simulation--><path d="M356.5,84.341 C356.5,106.559 356.5,134.588 356.5,156.477 " fill="none" id="main-&gt;simulation" style="stroke: #A80036; stroke-width: 1.0;"/><polygon fill="#A80036" points="356.5,161.617,360.5,152.617,356.5,156.617,352.5,152.617,356.5,161.617" style="stroke: #A80036; stroke-width: 1.0;"/><text fill="#000000" font-family="sans-serif" font-size="13" lengthAdjust="spacingAndGlyphs" textLength="367" x="357.5" y="128.4951">Provides interface for user to run simulation and receive results</text><!--MD5=[42d1d07a405bd112c970921f5ba10f30]
link landingpoints to abstractlistener--><path d="M597.5,364.285 C597.5,381.092 597.5,402.43 597.5,421.6735 " fill="none" id="landingpoints-&gt;abstractlistener" style="stroke: #A80036; stroke-width: 1.0;"/><polygon fill="none" points="604.5,421.786,597.5,441.786,590.5,421.7859,604.5,421.786" style="stroke: #A80036; stroke-width: 1.0;"/><text fill="#000000" font-family="sans-serif" font-size="13" lengthAdjust="spacingAndGlyphs" textLength="239" x="598.5" y="408.4951">Implements python proxy of java classes</text><!--MD5=[59fa71c04103dd219f3e206aa4b4339b]
reverse link simulation to landingpoints--><path d="M438.835,229.697 C454.577,237.247 470.741,245.513 485.5,254 C510.458,268.351 536.954,286.65 557.906,301.916 " fill="none" id="simulation&lt;-landingpoints" style="stroke: #A80036; stroke-width: 1.0;"/><polygon fill="#A80036" points="426.91,224.072,430.6295,230.2498,437.7627,229.1924,434.0432,223.0146,426.91,224.072" style="stroke: #A80036; stroke-width: 1.0;"/><text fill="#000000" font-family="sans-serif" font-size="13" lengthAdjust="spacingAndGlyphs" textLength="154" x="515.5" y="268.4951">Records simulation results</text><text fill="#000000" font-family="sans-serif" font-size="13" lengthAdjust="spacingAndGlyphs" textLength="7" x="433.0829" y="245.3102">1</text><text fill="#000000" font-family="sans-serif" font-size="13" lengthAdjust="spacingAndGlyphs" textLength="32" x="513.7448" y="290.9179">many</text><!--MD5=[38513b99bee128623ae482405c52f7b2]
link simulation to orhelper--><path d="M322.046,224.285 C297.198,246.125 263.646,275.617 237.931,298.22 " fill="none" id="simulation-&gt;orhelper" style="stroke: #A80036; stroke-width: 1.0;"/><polygon fill="#A80036" points="233.874,301.786,243.274,298.8465,237.6287,298.4842,237.9911,292.8389,233.874,301.786" style="stroke: #A80036; stroke-width: 1.0;"/><text fill="#000000" font-family="sans-serif" font-size="13" lengthAdjust="spacingAndGlyphs" textLength="188" x="288.5" y="268.4951">Accesses OpenRocket methods</text><!--MD5=[f3d44196ee596609110c70dad94bb433]
@startuml classDiagram
class orhelper 
orhelper : Provided on OpenRocket wiki to interface with OpenRocket java source code
class openrocket
openrocket : OpenRocket java source code providing methods for rocket simulation
orhelper - -> openrocket : Provides access to methods

class main
main : Provides entry point and access to simulation class to user
main : Allows configuration of parameters and selection of rocket model
class simulation
simulation : Provides interface for user to run simulation and receive results
class abstractlistener
abstractlistener : Provides template for python proxy of java listeners
class landingpoints
landingpoints : Implements proxy interface and records landing point of simulations

main - -> simulation : Provides interface for user to run simulation and receive results
landingpoints - -|> abstractlistener : Implements python proxy of java classes
simulation "1" *- - "many" landingpoints : Records simulation results
simulation - -> orhelper : Accesses OpenRocket methods

@enduml

PlantUML version 1.2020.09(Sun May 10 22:51:06 NZST 2020)
(GPL source distribution)
Java Runtime: Java(TM) SE Runtime Environment
JVM: Java HotSpot(TM) 64-Bit Server VM
Java Version: 12.0.2+10
Operating System: Windows 10
Default Encoding: Cp1252
Language: en
Country: NZ
--></g></svg>