<?xml version="1.0" encoding="UTF-8" standalone="no"?><svg xmlns="http://www.w3.org/2000/svg" xmlns:xlink="http://www.w3.org/1999/xlink" contentScriptType="application/ecmascript" contentStyleType="text/css" height="487px" preserveAspectRatio="none" style="width:744px;height:487px;" version="1.1" viewBox="0 0 744 487" width="744px" zoomAndPan="magnify"><defs><filter height="300%" id="f1bd2fmiw2byn9" width="300%" x="-1" y="-1"><feGaussianBlur result="blurOut" stdDeviation="2.0"/><feColorMatrix in="blurOut" result="blurOut2" type="matrix" values="0 0 0 0 0 0 0 0 0 0 0 0 0 0 0 0 0 0 .4 0"/><feOffset dx="4.0" dy="4.0" in="blurOut2" result="blurOut3"/><feBlend in="SourceGraphic" in2="blurOut3" mode="normal"/></filter></defs><g><rect fill="#FFFFFF" filter="url(#f1bd2fmiw2byn9)" height="261.0703" style="stroke: #A80036; stroke-width: 1.0;" width="10" x="356" y="119.9609"/><rect fill="#FFFFFF" filter="url(#f1bd2fmiw2byn9)" height="101.0547" style="stroke: #A80036; stroke-width: 1.0;" width="10" x="641" y="211.0156"/><rect fill="#FFFFFF" filter="url(#f1bd2fmiw2byn9)" height="79.0547" style="stroke: #000000; stroke-width: 2.0;" width="407" x="326.5" y="226.0156"/><line style="stroke: #A80036; stroke-width: 1.0; stroke-dasharray: 5.0,5.0;" x1="25" x2="25" y1="87.6094" y2="399.0313"/><line style="stroke: #A80036; stroke-width: 1.0; stroke-dasharray: 5.0,5.0;" x1="92" x2="92" y1="345.375" y2="399.0313"/><line style="stroke: #A80036; stroke-width: 1.0; stroke-dasharray: 5.0,5.0;" x1="360.5" x2="360.5" y1="87.6094" y2="399.0313"/><line style="stroke: #A80036; stroke-width: 1.0; stroke-dasharray: 5.0,5.0;" x1="645.5" x2="645.5" y1="87.6094" y2="399.0313"/><text fill="#000000" font-family="sans-serif" font-size="14" lengthAdjust="spacingAndGlyphs" textLength="28" x="8" y="84.5332">user</text><ellipse cx="25" cy="13" fill="#FEFECE" filter="url(#f1bd2fmiw2byn9)" rx="8" ry="8" style="stroke: #A80036; stroke-width: 2.0;"/><path d="M25,21 L25,48 M12,29 L38,29 M25,48 L12,63 M25,48 L38,63 " fill="none" filter="url(#f1bd2fmiw2byn9)" style="stroke: #A80036; stroke-width: 2.0;"/><text fill="#000000" font-family="sans-serif" font-size="14" lengthAdjust="spacingAndGlyphs" textLength="28" x="8" y="412.5645">user</text><ellipse cx="25" cy="425.6406" fill="#FEFECE" filter="url(#f1bd2fmiw2byn9)" rx="8" ry="8" style="stroke: #A80036; stroke-width: 2.0;"/><path d="M25,433.6406 L25,460.6406 M12,441.6406 L38,441.6406 M25,460.6406 L12,475.6406 M25,460.6406 L38,475.6406 " fill="none" filter="url(#f1bd2fmiw2byn9)" style="stroke: #A80036; stroke-width: 2.0;"/><rect fill="#FEFECE" filter="url(#f1bd2fmiw2byn9)" height="31.6094" style="stroke: #A80036; stroke-width: 1.5;" width="77" x="52" y="398.0313"/><text fill="#000000" font-family="sans-serif" font-size="14" lengthAdjust="spacingAndGlyphs" textLength="63" x="59" y="419.5645">outputFile</text><rect fill="#FEFECE" filter="url(#f1bd2fmiw2byn9)" height="31.6094" style="stroke: #A80036; stroke-width: 1.5;" width="45" x="336.5" y="51"/><text fill="#000000" font-family="sans-serif" font-size="14" lengthAdjust="spacingAndGlyphs" textLength="31" x="343.5" y="72.5332">main</text><rect fill="#FEFECE" filter="url(#f1bd2fmiw2byn9)" height="31.6094" style="stroke: #A80036; stroke-width: 1.5;" width="45" x="336.5" y="398.0313"/><text fill="#000000" font-family="sans-serif" font-size="14" lengthAdjust="spacingAndGlyphs" textLength="31" x="343.5" y="419.5645">main</text><rect fill="#FEFECE" filter="url(#f1bd2fmiw2byn9)" height="31.6094" style="stroke: #A80036; stroke-width: 1.5;" width="151" x="568.5" y="51"/><text fill="#000000" font-family="sans-serif" font-size="14" lengthAdjust="spacingAndGlyphs" textLength="137" x="575.5" y="72.5332">openrocket_simulator</text><rect fill="#FEFECE" filter="url(#f1bd2fmiw2byn9)" height="31.6094" style="stroke: #A80036; stroke-width: 1.5;" width="151" x="568.5" y="398.0313"/><text fill="#000000" font-family="sans-serif" font-size="14" lengthAdjust="spacingAndGlyphs" textLength="137" x="575.5" y="419.5645">openrocket_simulator</text><rect fill="#FFFFFF" filter="url(#f1bd2fmiw2byn9)" height="261.0703" style="stroke: #A80036; stroke-width: 1.0;" width="10" x="356" y="119.9609"/><rect fill="#FFFFFF" filter="url(#f1bd2fmiw2byn9)" height="101.0547" style="stroke: #A80036; stroke-width: 1.0;" width="10" x="641" y="211.0156"/><polygon fill="#A80036" points="344,115.9609,354,119.9609,344,123.9609,348,119.9609" style="stroke: #A80036; stroke-width: 1.0;"/><line style="stroke: #A80036; stroke-width: 1.0;" x1="25" x2="350" y1="119.9609" y2="119.9609"/><text fill="#000000" font-family="sans-serif" font-size="13" lengthAdjust="spacingAndGlyphs" textLength="287" x="32" y="115.1045">Upload rocket description and desired parameters</text><polygon fill="#A80036" points="36,146.3125,26,150.3125,36,154.3125,32,150.3125" style="stroke: #A80036; stroke-width: 1.0;"/><line style="stroke: #A80036; stroke-width: 1.0;" x1="30" x2="355" y1="150.3125" y2="150.3125"/><text fill="#000000" font-family="sans-serif" font-size="13" lengthAdjust="spacingAndGlyphs" textLength="307" x="42" y="145.4561">Return any warnings about given/missing parameters</text><polygon fill="#A80036" points="344,176.6641,354,180.6641,344,184.6641,348,180.6641" style="stroke: #A80036; stroke-width: 1.0;"/><line style="stroke: #A80036; stroke-width: 1.0;" x1="25" x2="350" y1="180.6641" y2="180.6641"/><text fill="#000000" font-family="sans-serif" font-size="13" lengthAdjust="spacingAndGlyphs" textLength="157" x="32" y="175.8076">Confirm simulation choices</text><polygon fill="#A80036" points="629,207.0156,639,211.0156,629,215.0156,633,211.0156" style="stroke: #A80036; stroke-width: 1.0;"/><line style="stroke: #A80036; stroke-width: 1.0;" x1="366" x2="635" y1="211.0156" y2="211.0156"/><text fill="#000000" font-family="sans-serif" font-size="13" lengthAdjust="spacingAndGlyphs" textLength="79" x="373" y="206.1592">Initialise JVM</text><path d="M326.5,226.0156 L399.5,226.0156 L399.5,234.0156 L389.5,244.0156 L326.5,244.0156 L326.5,226.0156 " fill="#EEEEEE" style="stroke: #000000; stroke-width: 1.0;"/><rect fill="none" height="79.0547" style="stroke: #000000; stroke-width: 2.0;" width="407" x="326.5" y="226.0156"/><text fill="#000000" font-family="sans-serif" font-size="13" font-weight="bold" lengthAdjust="spacingAndGlyphs" textLength="28" x="341.5" y="240.5107">loop</text><text fill="#000000" font-family="sans-serif" font-size="11" font-weight="bold" lengthAdjust="spacingAndGlyphs" textLength="47" x="414.5" y="239.4346">[n times]</text><polygon fill="#A80036" points="629,262.7188,639,266.7188,629,270.7188,633,266.7188" style="stroke: #A80036; stroke-width: 1.0;"/><line style="stroke: #A80036; stroke-width: 1.0;" x1="366" x2="635" y1="266.7188" y2="266.7188"/><text fill="#000000" font-family="sans-serif" font-size="13" lengthAdjust="spacingAndGlyphs" textLength="251" x="373" y="261.8623">Randomise parameters &amp; send to simulator</text><polygon fill="#A80036" points="377,293.0703,367,297.0703,377,301.0703,373,297.0703" style="stroke: #A80036; stroke-width: 1.0;"/><line style="stroke: #A80036; stroke-width: 1.0;" x1="371" x2="640" y1="297.0703" y2="297.0703"/><text fill="#000000" font-family="sans-serif" font-size="13" lengthAdjust="spacingAndGlyphs" textLength="81" x="383" y="292.2139">Return results</text><polygon fill="#A80036" points="144,330.4219,134,334.4219,144,338.4219,140,334.4219" style="stroke: #A80036; stroke-width: 1.0;"/><line style="stroke: #A80036; stroke-width: 1.0;" x1="138" x2="355" y1="334.4219" y2="334.4219"/><text fill="#000000" font-family="sans-serif" font-size="13" lengthAdjust="spacingAndGlyphs" textLength="137" x="150" y="329.5654">Store simulation results</text><rect fill="#FEFECE" filter="url(#f1bd2fmiw2byn9)" height="31.6094" style="stroke: #A80036; stroke-width: 1.5;" width="77" x="52" y="312.0703"/><text fill="#000000" font-family="sans-serif" font-size="14" lengthAdjust="spacingAndGlyphs" textLength="63" x="59" y="333.6035">outputFile</text><polygon fill="#A80036" points="36,377.0313,26,381.0313,36,385.0313,32,381.0313" style="stroke: #A80036; stroke-width: 1.0;"/><line style="stroke: #A80036; stroke-width: 1.0;" x1="30" x2="360" y1="381.0313" y2="381.0313"/><text fill="#000000" font-family="sans-serif" font-size="13" lengthAdjust="spacingAndGlyphs" textLength="159" x="42" y="376.1748">Return simualtion summary</text><!--MD5=[450b677e8eb42f287421ea09e296b076]
@startuml sequenceDiagram
actor user order 0
participant main order 20
participant openrocket_simulator order 30

user -> main : Upload rocket description and desired parameters
activate main
main -> user : Return any warnings about given/missing parameters
user -> main : Confirm simulation choices

main -> openrocket_simulator : Initialise JVM
activate openrocket_simulator

loop n times
	main -> openrocket_simulator : Randomise parameters & send to simulator
	openrocket_simulator -> main : Return results
end
deactivate openrocket_simulator

create outputFile order 10
main -> outputFile: Store simulation results

main -> user : Return simualtion summary
deactivate main

@enduml

PlantUML version 1.2020.09(Sun May 10 22:51:06 NZST 2020)
(GPL source distribution)
Java Runtime: Java(TM) SE Runtime Environment
JVM: Java HotSpot(TM) 64-Bit Server VM
Java Version: 12.0.2+10
Operating System: Windows 10
Default Encoding: Cp1252
Language: en
Country: NZ
--></g></svg>